<svg xmlns="http://www.w3.org/2000/svg" width="91.884" height="91.884" viewBox="0 0 91.884 91.884">
  <g id="illustration" transform="translate(-100 -247)">
    <path id="Vector" d="M91.884,45.942A45.942,45.942,0,1,1,45.942,0,45.942,45.942,0,0,1,91.884,45.942Z" transform="translate(100 247)" fill="#ffc700"/>
    <path id="Vector-2" data-name="Vector" d="M5.039,2.52A2.52,2.52,0,1,1,2.52,0,2.52,2.52,0,0,1,5.039,2.52Z" transform="translate(140.838 267.977)" fill="#b5b2e5"/>
    <path id="Vector-3" data-name="Vector" d="M6.838,3.419A3.419,3.419,0,1,1,3.419,0,3.419,3.419,0,0,1,6.838,3.419Z" transform="translate(115.176 269.136)" fill="#968df4" opacity="0.3"/>
    <path id="Vector-4" data-name="Vector" d="M5.421,2.71A2.71,2.71,0,1,1,2.71,0,2.71,2.71,0,0,1,5.421,2.71Z" transform="translate(175.023 281.849)" fill="#8294ec" opacity="0.3"/>
    <path id="Vector-5" data-name="Vector" d="M4.488,0H56.65a4.488,4.488,0,0,1,4.488,4.488V33.614A4.488,4.488,0,0,1,56.65,38.1H4.488A4.488,4.488,0,0,1,0,33.614V4.488A4.488,4.488,0,0,1,4.488,0Z" transform="translate(108.426 282.258) rotate(-10.87)" fill="#007078"/>
    <path id="Vector-6" data-name="Vector" d="M4.488,0H56.65a4.488,4.488,0,0,1,4.488,4.488V33.614A4.488,4.488,0,0,1,56.65,38.1H4.488A4.488,4.488,0,0,1,0,33.614V4.488A4.488,4.488,0,0,1,4.488,0Z" transform="translate(109.745 282.005) rotate(-10.87)" fill="#fff"/>
    <path id="Vector-7" data-name="Vector" d="M55.378.065,3.153,10.091A4.252,4.252,0,0,0,.091,15.239L.915,19.53,60.957,8,60.13,3.72A4.244,4.244,0,0,0,55.378.065Z" transform="translate(110.328 271.27)" fill="#00dfee"/>
    <path id="Vector-8" data-name="Vector" d="M1.039,0H11.974a1.039,1.039,0,0,1,1.039,1.039V13.612a1.039,1.039,0,0,1-1.039,1.039H1.039A1.039,1.039,0,0,1,0,13.612V1.039A1.039,1.039,0,0,1,1.039,0Z" transform="translate(115.703 300.257) rotate(-10.87)" fill="#ffc700"/>
    <path id="Vector-9" data-name="Vector" d="M4.857,2.456A2.442,2.442,0,0,1,2.429,4.912,2.442,2.442,0,0,1,0,2.456,2.442,2.442,0,0,1,2.429,0,2.442,2.442,0,0,1,4.857,2.456Z" transform="translate(120.416 302.215) rotate(-10.87)" fill="#fff"/>
    <path id="Vector-10" data-name="Vector" d="M5.988.029A.89.89,0,0,0,5.2.2a2.786,2.786,0,0,1-1.2.545A2.786,2.786,0,0,1,2.693.68a.909.909,0,0,0-.8.133A4.818,4.818,0,0,0,0,4.448a.909.909,0,0,0,1.063.939l7.389-1.42A.908.908,0,0,0,9.095,2.7,4.818,4.818,0,0,0,5.988.029Z" transform="translate(119.866 306.576)" fill="#fff"/>
    <path id="Vector-11" data-name="Vector" d="M0,5.164,26.335,0" transform="translate(136.146 290.376)" fill="#00dfee" stroke="#00dfee" stroke-linecap="round" stroke-linejoin="round" stroke-width="5"/>
    <path id="Vector-12" data-name="Vector" d="M0,4.647,23.237,0" transform="translate(138.212 299.67)" fill="#00dfee" stroke="#00dfee" stroke-linecap="round" stroke-linejoin="round" stroke-width="5"/>
    <path id="Vector-13" data-name="Vector" d="M22.2,11.1A11.1,11.1,0,1,1,11.1,0,11.1,11.1,0,0,1,22.2,11.1Z" transform="translate(153.703 260.942)" fill="#e36722"/>
    <path id="Vector-14" data-name="Vector" d="M21.688,11.1A10.975,10.975,0,0,1,10.844,22.2,10.975,10.975,0,0,1,0,11.1,10.975,10.975,0,0,1,10.844,0,10.975,10.975,0,0,1,21.688,11.1Z" transform="translate(155.769 260.942)" fill="#f38548"/>
    <path id="Vector-15" data-name="Vector" d="M10.345,20.139A10.518,10.518,0,0,1,4.6,18.45,10.13,10.13,0,0,1,.791,13.933,9.836,9.836,0,0,1,.2,8.114,9.994,9.994,0,0,1,3.02,2.954,10.412,10.412,0,0,1,8.309.194a10.574,10.574,0,0,1,5.97.572,10.276,10.276,0,0,1,4.637,3.71,9.874,9.874,0,0,1-1.282,12.707,10.47,10.47,0,0,1-7.289,2.956Zm0-19.8A10.172,10.172,0,0,0,4.791,1.967,9.8,9.8,0,0,0,1.1,6.334a9.513,9.513,0,0,0-.575,5.628,9.665,9.665,0,0,0,2.73,4.99,10.069,10.069,0,0,0,5.114,2.67,10.226,10.226,0,0,0,5.773-.551,9.938,9.938,0,0,0,4.485-3.587A9.544,9.544,0,0,0,17.392,3.2,10.132,10.132,0,0,0,10.345.334Z" transform="translate(156.285 261.975)" fill="#e36722"/>
    <path id="Vector-16" data-name="Vector" d="M.908,8.8A.908.908,0,0,1,.245,7.269L6.786.279A.908.908,0,0,1,8.113,1.521L1.572,8.51A.908.908,0,0,1,.908,8.8Z" transform="translate(164.212 268.167)" fill="#fff"/>
    <path id="Vector-17" data-name="Vector" d="M3.709,5.157a.909.909,0,0,1-.7-.327L.181,1.453A.908.908,0,0,1,1.571.287L4.406,3.664a.908.908,0,0,1-.7,1.493Z" transform="translate(161.444 271.808)" fill="#fff"/>
    <path id="Vector-18" data-name="Vector" d="M6.838,3.419A3.419,3.419,0,1,1,3.419,0,3.419,3.419,0,0,1,6.838,3.419Z" transform="translate(134.533 320.587)" fill="#968df4" opacity="0.3"/>
  </g>
</svg>
